<?xml version="1.0" encoding="UTF-8" standalone="no"?>
<!-- Created with Inkscape (http://www.inkscape.org/) -->

<svg version="1.1" id="mn_logo" viewBox="0 0 1248 537" 
			 xmlns="http://www.w3.org/2000/svg"
			xmlns:svg="http://www.w3.org/2000/svg">
		
			<g transform="matrix(1.3333333,0,0,-1.3333333,0,537)">
				<g transform="scale(0.1)">
					<path
						d="m 5250.8,2157.55 c 313.82,-3.11 81.67,-581.94 199.81,-683.11 62.47,-31.36 184.78,74.89 189.03,181.23 12.32,80.91 -7.61,145.11 -22.32,232.49 -12.54,75.75 -57.71,137.02 -49.63,192.51 2.93,19.65 47.29,84.37 77.76,87.56 113.17,11.8 201.97,-227.94 213.93,-346.51 24.4,-240.68 -104.49,-584.17 -337.48,-619.33 -325.53,-49.12 -332.37,354.86 -328.09,624.5 1.79,109.36 -12.03,245.68 56.99,330.66"
						style="fill:#FFFFFF;fill-opacity:1;fill-rule:evenodd;stroke:none" id="path12" />
					<path
						d="m 4819.74,2083.34 c -145.25,-132.36 -253.99,-301.35 -259.55,-573.31 204.06,45.07 383.05,379.77 259.55,573.31 z M 5068.62,818.738 c -84.2,-23.687 -80.23,-36.617 -162.31,-10.847 -135.35,274.119 -55.63,247.829 -75.71,572.279 -81.09,-114.87 -325.4,-146.76 -432.68,-21.63 -198.49,231.55 143.62,883.1 356.93,908.71 131.68,15.76 108.67,-94.02 259.66,-86.52 98.18,-79.63 67.37,-220.52 64.88,-346.25 -8.92,-450.18 -24.18,-538.93 -10.77,-1015.742"
						style="fill:#FFFFFF;fill-opacity:1;fill-rule:evenodd;stroke:none" id="path14" />
					<path
						d="m 9300.17,1891.61 c -30.95,7.32 -69.46,7.07 -98.35,16.37 -46.78,55.58 -122.68,202.51 0,221.38 110.24,16.98 234.74,-166.32 98.35,-237.75"
						style="fill:#FFFFFF;fill-opacity:1;fill-rule:evenodd;stroke:none" id="path16" />
					<path
						d="m 7515.91,1546.92 c -87.78,-63.34 -285.91,-205.01 -378.59,-10.87 -88.26,-104.95 -132.96,-256.02 -313.68,-237.92 -102.6,10.26 -235.7,158.56 -281.23,270.41 -93.2,228.37 -74.33,556.17 -75.79,789.7 -170.3,-25.25 -383.87,35.08 -324.5,238.01 64.85,57.74 204.71,40.41 324.5,43.26 30.32,113.92 0.15,288.26 64.92,367.79 203.81,27.83 202.52,-172.43 183.87,-335.38 318.32,-41.46 615.72,118.4 908.73,43.34 -21.5,-24.99 2.71,-12.06 10.83,-32.49 13.64,-27.14 -38.4,-65.32 -32.55,-119 -222.68,-141.5 -573.44,-154.86 -897.8,-194.76 -10.17,-196.99 -26.55,-430.26 10.79,-594.94 6.11,-26.8 58.12,-191.91 97.4,-194.67 30.76,-2.23 186.54,218.02 205.52,259.64 36.11,79.11 18.22,162.53 86.54,194.67 182.81,14.56 209.51,-126.93 194.74,-259.64 73.48,44.55 157.23,109.09 216.3,183.89 44.37,56.19 45.32,125.13 129.81,129.86 69.72,3.89 152.01,-119.6 162.25,-194.75 10.65,-77.72 -18.94,-201.13 -21.61,-313.67 -4.21,-179.58 -22.06,-370.46 -32.44,-519.28 121.9,139.34 288.8,313.85 486.79,465.16 182.99,139.87 395.13,308.85 562.5,378.66 198.28,82.63 204.17,-41.02 162.29,-183.9 C 8583.2,1392.92 8049.27,1145 7829.67,584.18 7801.58,512.398 7751.25,405.289 7721.44,313.68 7676.01,174 7690.27,2.76953 7548.36,0.0117188 7510.98,-0.691406 7409.7,95.0703 7396.9,183.91 c -15.04,105.051 25.45,299.27 43.3,475.93 28.6,283.519 72.64,603.65 75.71,887.08"
						style="fill:#FFFFFF;fill-opacity:1;fill-rule:evenodd;stroke:none" id="path18" />
					<path
						d="m 6240.65,1373.88 c -30.83,-16.03 -71.61,-22.23 -97.36,-43.35 -199.27,42.39 -127.25,324.53 -151.43,584.18 -12.4,133.14 -93.3,242.66 -21.61,313.76 259.54,42.22 257.56,-270.94 259.54,-497.66 1.1,-110.91 2.78,-253.18 10.86,-356.93"
						style="fill:#FFFFFF;fill-opacity:1;fill-rule:evenodd;stroke:none" id="path20" />
					<path
						d="m 5916.15,2574.63 c 201.5,28.78 245.5,-311.7 64.89,-281.28 -85.63,14.4 -169.42,213.29 -64.89,281.28"
						style="fill:#FFFFFF;fill-opacity:1;fill-rule:evenodd;stroke:none" id="path22" />
					<path
						d="m 3985.8,2640.11 c 75.7,29.04 185.92,30.77 248.83,43.27 101.24,-114.7 6.42,-327.99 -129.83,-324.54 -106.89,2.77 -186.22,165.8 -119,281.27"
						style="fill:#FFFFFF;fill-opacity:1;fill-rule:evenodd;stroke:none" id="path24" />
					<path
						d="m 4245.44,1373.88 c -326.55,-206.22 -222.81,610.02 -259.64,800.46 9.6,4.75 19.35,9.57 21.67,21.64 234.05,48.43 237.68,-249.65 237.97,-432.68 0.22,-142.71 16.93,-268.17 0,-389.42"
						style="fill:#FFFFFF;fill-opacity:1;fill-rule:evenodd;stroke:none" id="path26" />
					<path
						d="m 3618.05,1871.45 c -104.96,68.84 -226.77,39.98 -292.08,-54.13 6.62,-112.37 -13.71,-251.53 10.77,-346.15 150.2,77.04 289.41,165.02 281.31,400.28 z m -562.54,887.07 c 124.27,54.03 145.08,-64.98 194.66,-119.01 38.35,-144.94 34.05,-323.66 64.94,-497.66 348.31,118.06 667.11,-243 519.29,-584.16 -59.9,-138.06 -303.22,-388.22 -486.81,-367.79 -83.54,9.39 -232.63,135.8 -248.83,227.24 -36.74,207.5 -0.77,442.06 -10.81,670.68 -10.77,245.68 -84.01,492.32 -32.44,670.7"
						style="fill:#FFFFFF;fill-opacity:1;fill-rule:evenodd;stroke:none" id="path28" />
					<path
						d="m 2602.37,2044.57 c -41.02,-189.85 -84.37,-377.19 -75.71,-616.58 209.87,81.18 262.01,476.03 75.71,616.58 z m -21.64,129.77 c 123.41,116.68 268.27,-103.74 324.53,-248.78 125.08,-322.72 -67.56,-800.21 -346.2,-768.07 -278.63,32.06 -289.63,504.2 -227.12,811.33 28.88,141.93 115.47,353.06 248.79,205.52"
						style="fill:#FFFFFF;fill-opacity:1;fill-rule:evenodd;stroke:none" id="path30" />
					<path d="m 621.781,2378.23 -0.082,-0.12 0.082,0.08 z"
						style="fill:#4DA3FF;fill-opacity:1;fill-rule:nonzero;stroke:none" id="path32" />
					<path d="m 622.004,2381.55 v 0 l -0.176,0.43 z"
						style="fill:#4DA3FF;fill-opacity:1;fill-rule:nonzero;stroke:none" id="path34" />
					<path
						d="m 621.781,2378.23 v -0.04 l -0.082,-0.08 z m 1412.489,245.04 -65.42,190.23 c -21.41,63.42 -42.56,127.45 -68.38,190.19 -25.97,62.52 -56.13,124.78 -100.34,179.06 -42.87,54.34 -109.05,97.76 -182.26,100.87 l -12.67,0.56 -3.79,-11.33 -0.13,-0.35 c -23.4,-66.87 -11.42,-138.82 10.82,-200.14 21.41,-62.43 51.22,-120.34 66.52,-182.85 7.98,-30.86 10.47,-63.3 13.49,-95.62 2.8,-32.31 4.83,-64.71 6.03,-97.16 2.76,-64.93 1.59,-129.99 -2.2,-194.84 -8.44,-129.69 -23.82,-258.82 -44.6,-386.92 -16.71,-101.9 -37.13,-203.2 -62.51,-302.99 -29.86,196.69 -74.2,391.45 -132.66,581.42 -32.75,107.33 -65.76,216.25 -119.53,317.77 -27.19,50.32 -59.89,99.4 -105.31,138.05 -44.55,39.12 -106.98,62.17 -167.47,55.75 l -6.08,-0.69 -4.39,-4.3 c -18.79,-18.62 -33.09,-46.54 -33.09,-74.89 -0.48,-28.09 8.1,-52.83 16.2,-75.58 8.31,-22.83 17.1,-44.55 22.4,-66.13 5.13,-22.45 9.61,-45.54 12.59,-68.72 12.71,-92.82 9.69,-187.82 -0.18,-281.75 -18.62,-166.62 -59.32,-330.57 -109.872,-491.15 -17.829,103.1 -31.239,208.45 -64.364,309.88 -20.383,60.58 -49.379,121.16 -97.722,165.28 -47.872,44.94 -113.973,64.54 -177.348,64.63 l 0.129,-0.26 -2.324,-1.16 c -21.844,-10.99 -23.829,-23.56 -22.887,-35.59 0.219,-12.11 0.738,-24.21 1.555,-36.24 1.679,-24.08 4.57,-47.95 8.226,-71.57 7.418,-47.26 18.051,-93.49 29.262,-139.03 23.008,-91 46.269,-179.89 57.562,-269.94 l 33.129,-277.79 c 13.578,-92.64 28.102,-185.7 52.012,-276.79 l 1.465,-7.19 6.371,-3.63 c 41.066,-23.39 72.391,-68.15 125.82,-92.97 26.93,-12.2 59.246,-13.75 87.896,-3.97 32.44,12.5 48.21,40.72 59.8,64.77 22.54,50.14 32.45,101.33 47.01,150.2 13.92,48.72 33.91,95.04 55.49,142.09 21.38,46.49 42.53,97.38 53.35,148.61 12.06,51.23 19.86,103.06 25.9,154.68 6.11,51.58 10.64,103.11 17.57,153.7 4.62,32.74 10.56,65.31 19.57,96.25 24.6,-97.38 38.17,-197.77 44.29,-298.55 7.06,-118.53 5,-237.67 -0.39,-356.76 -10.6,-238.23 -36.71,-476.5 -36.11,-717.14 l 0.05,-7.75 5.94,-4.872 c 36.28,-29.898 71.79,-63.636 118.02,-86.699 22.88,-10.969 51.14,-19.39 80.09,-12.269 29.52,6.25 52.19,29.39 63.17,53.73 21.72,48.34 25.69,96.418 33.48,143.481 6.85,47.129 13.88,93.668 24.35,139.339 21.32,92.16 46.23,184.41 65.66,278.16 9.74,46.93 18.32,94.24 23.7,142.37 4.65,46.88 8.14,94.79 -2.59,144.17 37.79,221.12 55.67,445.17 58.12,668.83 1.86,112.37 -1.5,224.7 -8.4,336.78 -4.34,84.14 -7.66,168.29 -7.76,252.74 69.55,-187.99 103.16,-389.07 121.94,-589.43 20.6,-228.53 20.69,-458.92 10.52,-688.44 -8.23,-229.44 -49.59,-455.99 -77,-685.601 -12.37,-115.207 -24.3,-230 -19.17,-347.579 4.05,-58.21 9.82,-118.832 41.88,-174.332 15.85,-27.226 44.85,-51.738 78.85,-56.918 33.39,-5.679 65.61,2.84 93.06,13.739 l 4.23,1.679 2.8,3.403 c 23,28.238 37.71,62.949 44.58,97.699 7.08,34.852 7.91,69.441 8.64,103.012 0.64,33.847 1.11,65.968 5.56,98.699 l 12.05,99.75 47.82,399.459 c 29.77,266.62 54.81,534.41 57.61,803.58 8.8,271.1 -54.46,539.18 -139.63,793.27"
						style="fill:#4DA3FF;fill-opacity:1;fill-rule:nonzero;stroke:none" id="path36" />
					<path
						d="m 540.867,1745.37 c 0,-149.34 -121.074,-270.5 -270.414,-270.5 C 121.074,1474.87 0,1596.03 0,1745.37 c 0,149.34 121.074,270.42 270.453,270.42 149.34,0 270.414,-121.08 270.414,-270.42"
						style="fill:#4DA3FF;fill-opacity:1;fill-rule:evenodd;stroke:none" id="path38" />
					<path
						d="m 4322.49,466.52 v -65.29 h 1.46 c 8.78,22.969 24.47,41.461 46.96,55.372 22.5,13.957 47.13,20.937 74.11,20.937 26.37,0 48.51,-3.449 66.34,-10.258 17.85,-6.89 32.16,-16.551 42.93,-28.98 10.77,-12.461 18.36,-27.801 22.75,-45.852 4.39,-18.109 6.54,-38.39 6.54,-60.879 V 87.9883 h -46.19 V 324.23 c 0,16.11 -1.46,31.149 -4.39,45.079 -2.93,13.961 -8.1,26.062 -15.42,36.359 -7.33,10.262 -17.24,18.312 -29.64,24.184 -12.51,5.886 -28.02,8.828 -46.64,8.828 -18.6,0 -35.06,-3.328 -49.54,-9.91 -14.39,-6.641 -26.63,-15.688 -36.63,-27.161 -10.08,-11.48 -17.92,-25.199 -23.52,-41.089 -5.59,-15.891 -8.7,-33.141 -9.12,-51.7 V 87.9883 h -46.2 V 466.52 h 46.2"
						style="fill:#4DA3FF;fill-opacity:1;fill-rule:nonzero;stroke:none" id="path40" />
					<path
						d="m 4940.44,354.32 c -5.62,16.11 -13.63,30.41 -23.89,42.899 -10.24,12.461 -22.75,22.5 -37.39,30.09 -14.65,7.57 -31.28,11.371 -49.89,11.371 -19.04,0 -35.94,-3.801 -50.59,-11.371 -14.65,-7.59 -27.14,-17.629 -37.4,-30.09 -10.33,-12.489 -18.52,-26.918 -24.65,-43.297 -6.11,-16.41 -10.08,-33.121 -12.05,-50.281 h 244.98 c -0.43,17.668 -3.53,34.507 -9.12,50.679 z M 4711.55,213.082 c 4.66,-17.852 12.07,-33.871 22.42,-48.102 10.24,-14.128 23.17,-25.89 38.86,-35.152 15.6,-9.308 34.45,-13.949 56.44,-13.949 33.77,0 60.14,8.781 79.27,26.41 19.04,17.609 32.23,41.051 39.56,70.441 h 46.27 c -9.82,-43.082 -27.74,-76.351 -53.93,-99.8 -26.21,-23.4808 -63.26,-35.2386 -111.17,-35.2386 -29.81,0 -55.58,5.2695 -77.38,15.7695 -21.73,10.5081 -39.47,25.0001 -53.18,43.3011 -13.7,18.359 -23.87,39.597 -30.42,63.808 -6.63,24.231 -9.91,49.821 -9.91,76.7 0,24.91 3.28,49.378 9.91,73.339 6.55,23.95 16.72,45.371 30.42,64.2 13.71,18.82 31.45,33.98 53.18,45.511 21.8,11.442 47.57,17.219 77.38,17.219 30.34,0 56.27,-6.117 77.81,-18.359 21.45,-12.231 38.95,-28.25 52.4,-48.039 13.44,-19.77 23.09,-42.52 29.04,-68.2 5.85,-25.671 8.26,-51.75 7.31,-78.16 h -291.25 c 0,-16.64 2.32,-33.871 6.97,-51.699"
						style="fill:#4DA3FF;fill-opacity:1;fill-rule:nonzero;stroke:none" id="path42" />
					<path
						d="m 5207.38,466.52 v -38.872 h -77.02 V 172.352 c 0,-15.161 2.07,-27.012 6.29,-35.59 4.13,-8.571 14.48,-13.313 31.19,-14.301 13.21,0 26.37,0.73 39.54,2.199 V 85.7891 c -6.8,0 -13.68,-0.25 -20.48,-0.7305 -6.92,-0.4688 -13.72,-0.7266 -20.6,-0.7266 -30.76,0 -52.31,5.9375 -64.54,17.957 -12.25,11.981 -18.11,34.09 -17.6,66.402 v 258.957 h -66 v 38.872 h 66 v 113.75 h 46.2 V 466.52 h 77.02"
						style="fill:#4DA3FF;fill-opacity:1;fill-rule:nonzero;stroke:none" id="path44" />
					<path
						d="m 5302.44,466.52 96.86,-324.231 h 1.46 l 92.46,324.231 h 52.05 l 92.46,-324.231 h 1.47 l 96.78,324.231 h 49.23 L 5663.45,87.9883 h -50.7 l -93.16,318.3707 h -1.46 L 5425.67,87.9883 h -50.59 L 5253.32,466.52 h 49.12"
						style="fill:#4DA3FF;fill-opacity:1;fill-rule:nonzero;stroke:none" id="path46" />
					<path
						d="m 5931.77,424.711 c -16.64,-9.313 -30.43,-21.551 -41.44,-36.699 -10.94,-15.172 -19.31,-32.41 -24.91,-51.711 -5.6,-19.313 -8.45,-38.992 -8.45,-59.031 0,-20.079 2.85,-39.719 8.45,-59.071 5.6,-19.347 13.97,-36.578 24.91,-51.699 11.01,-15.18 24.8,-27.41 41.44,-36.672 16.64,-9.308 35.95,-13.949 58.01,-13.949 21.98,0 41.26,4.641 57.9,13.949 16.64,9.262 30.5,21.492 41.44,36.672 11.04,15.121 19.38,32.352 24.98,51.699 5.63,19.352 8.45,38.992 8.45,59.071 0,20.039 -2.82,39.718 -8.45,59.031 -5.6,19.301 -13.94,36.539 -24.98,51.711 -10.94,15.148 -24.8,27.386 -41.44,36.699 -16.64,9.309 -35.92,13.969 -57.9,13.969 -22.06,0 -41.37,-4.66 -58.01,-13.969 z m 134.6,36.719 c 22.31,-10.77 41.04,-25.258 56.18,-43.301 15.18,-18.149 26.63,-39.25 34.49,-63.481 7.83,-24.218 11.7,-49.957 11.7,-77.378 0,-27.399 -3.87,-53.161 -11.7,-77.379 -7.86,-24.211 -19.31,-45.422 -34.49,-63.512 -15.14,-18.098 -33.87,-32.41 -56.18,-42.9181 -22.24,-10.5 -47.73,-15.7695 -76.59,-15.7695 -28.9,0 -54.46,5.2695 -76.7,15.7695 -22.24,10.5081 -40.93,24.8201 -56.11,42.9181 -15.18,18.09 -26.63,39.301 -34.45,63.512 -7.87,24.218 -11.74,49.98 -11.74,77.379 0,27.421 3.87,53.16 11.74,77.378 7.82,24.231 19.27,45.332 34.45,63.481 15.18,18.043 33.87,32.531 56.11,43.301 22.24,10.718 47.8,16.109 76.7,16.109 28.86,0 54.35,-5.391 76.59,-16.109"
						style="fill:#4DA3FF;fill-opacity:1;fill-rule:nonzero;stroke:none" id="path48" />
					<path
						d="m 6286.45,466.52 v -88.782 h 1.5 c 11.7,30.864 29.88,54.563 54.6,71.203 24.73,16.618 54.21,24.207 88.45,22.75 v -46.25 c -21.04,1.008 -40.17,-1.851 -57.25,-8.429 -17.15,-6.602 -31.89,-15.981 -44.36,-28.242 -12.51,-12.231 -22.17,-26.79 -28.97,-43.668 -6.88,-16.864 -10.35,-35.332 -10.35,-55.383 V 87.9883 h -46.16 V 466.52 h 42.54"
						style="fill:#4DA3FF;fill-opacity:1;fill-rule:nonzero;stroke:none" id="path50" />
					<path
						d="M 6530.67,611.801 V 283.141 L 6740.5,466.52 h 61.63 L 6640.72,326.391 6813.14,87.9883 h -57.97 l -149.6,206.1837 -74.9,-62.402 V 87.9883 h -46.16 V 611.801 h 46.16"
						style="fill:#4DA3FF;fill-opacity:1;fill-rule:nonzero;stroke:none" id="path52" />
					<path
						d="m 7069.1,392.828 c -5.34,10.524 -12.58,19.133 -21.65,26.031 -9.04,6.801 -19.39,11.852 -31.16,15.032 -11.74,3.14 -24.14,4.789 -37.42,4.789 -10.24,0 -20.67,-1.11 -31.09,-3.328 -10.61,-2.192 -20.26,-5.903 -29.04,-10.993 -8.82,-5.16 -15.88,-11.89 -21.29,-20.148 -5.34,-8.359 -8.01,-18.621 -8.01,-30.859 0,-10.25 2.56,-18.961 7.64,-26.024 5.2,-7.109 11.64,-13.09 19.5,-18.008 7.75,-4.871 16.35,-8.871 25.68,-12.05 9.21,-3.2 17.81,-5.782 25.67,-7.719 l 61.6,-13.922 c 13.2,-1.988 26.3,-5.52 39.21,-10.699 12.94,-5.078 24.5,-11.848 34.49,-20.149 10.05,-8.32 18.25,-18.582 24.54,-30.82 6.4,-12.191 9.58,-26.66 9.58,-43.281 0,-20.52 -4.64,-38.008 -13.97,-52.399 -9.22,-14.48 -21.1,-26.211 -35.59,-35.261 -14.37,-9.0317 -30.69,-15.5083 -48.75,-19.4184 -18.11,-3.9297 -35.96,-5.9102 -53.55,-5.9102 -44.55,0 -80.54,10.5195 -108.23,31.5896 -27.58,20.969 -43.34,54.77 -47.29,101.199 h 46.19 c 1.98,-31.269 13.35,-54.878 34.13,-70.742 20.74,-15.937 46.6,-23.859 77.36,-23.859 11.3,0 22.93,1.191 34.93,3.66 11.96,2.449 23.08,6.582 33.32,12.449 10.28,5.891 18.73,13.352 25.35,22.403 6.54,9.039 9.91,20.16 9.91,33.339 0,11.309 -2.34,20.692 -6.99,28.282 -4.64,7.59 -10.86,13.949 -18.69,19.027 -7.86,5.18 -16.82,9.441 -26.81,12.84 -9.98,3.461 -20.15,6.383 -30.43,8.832 l -59.44,13.25 c -15.18,3.867 -29.04,8.43 -41.8,13.508 -12.77,5.179 -23.85,11.5 -33.36,19.09 -9.55,7.589 -17.05,16.851 -22.38,27.871 -5.35,11.05 -8.12,24.57 -8.12,40.73 0,19.09 4.31,35.461 12.83,49.16 8.63,13.7 19.75,24.692 33.47,33.012 13.68,8.297 28.93,14.387 45.83,18.359 16.9,3.879 33.61,5.848 50.22,5.848 19.06,0 36.83,-2.449 53.18,-7.328 16.39,-4.902 30.87,-12.492 43.27,-22.75 12.51,-10.242 22.38,-23.012 29.74,-38.172 7.31,-15.16 11.44,-33.008 12.47,-53.508 h -46.16 c -0.55,14.117 -3.48,26.5 -8.89,37.047"
						style="fill:#4DA3FF;fill-opacity:1;fill-rule:nonzero;stroke:none" id="path54" />
				</g>
			</g>
		</svg>
